PathFileType	4	(X/Y/Z)	D:\datacapture\jf2lin\2017-09-14 IITTimeSync\timesync1.trc
DataRate	CameraRate	NumFrames	NumMarkers	Units	OrigDataRate	OrigDataStartFrame	OrigNumFrames
100.00	100.00	      119	3	mm	100.00	1216	      3241
Frame#	Time	M1			M2			M3			
		X1	Y1	Z1	X2	Y2	Z2	X3	Y3	Z3	

1216	12.150	97.49752	1109.69128	55.98126	145.11073	1134.17480	62.86600				
1217	12.160	97.59608	1108.73193	62.81026	145.28506	1134.30981	68.47716				
1218	12.170	97.85963	1108.31006	68.51140	145.23724	1134.05713	74.24080				
1219	12.180	98.32295	1109.49805	74.63661	145.03709	1134.36035	80.63513				
1220	12.190	98.10930	1109.70227	81.50136	145.11630	1136.04871	86.70563				
1221	12.200	98.39019	1111.29663	87.75678	144.99522	1136.94702	92.32732				
1222	12.210	98.07753	1112.13049	95.16007	144.97725	1137.46729	99.37650				
1223	12.220	98.04980	1113.57129	101.00036	144.70033	1139.73206	105.00310				
1224	12.230	97.65613	1114.44604	108.35749	144.49561	1140.74597	111.32594				
1225	12.240	98.12337	1117.12537	113.08504	144.62405	1143.55920	116.70518				
1226	12.250	144.46545	1145.15881	121.86083				123.81431	1350.38672	83.21928	
1227	12.260	144.79787	1148.27673	125.86786				123.81431	1350.38672	83.21928	
1228	12.270	144.18227	1149.94788	130.73497				123.81431	1350.38672	83.21928	
1229	12.280	144.13715	1152.47668	135.98132				123.60477	1350.12964	81.50838	
1230	12.290	143.40048	1155.42407	140.32292				123.60477	1350.12964	81.50838	
1231	12.300	142.94943	1158.79858	144.67885				123.60477	1350.12964	81.50838	
1232	12.310	142.10364	1161.33374	150.29016				123.60477	1350.12964	81.50838	
1233	12.320	141.03619	1163.95728	154.76785				125.44688	1352.01306	79.94299	
1234	12.330	140.61600	1167.30139	159.67332				125.44688	1352.01306	79.94299	
1235	12.340	139.49319	1170.42578	163.74002				125.44688	1352.01306	79.94299	
1236	12.350	137.53246	1172.87402	168.96211				125.44688	1352.01306	79.94299	
1237	12.360	136.38284	1176.65491	173.09109				125.23080	1351.82922	80.06255	
1238	12.370	134.96896	1180.17993	177.28250				125.71593	1352.34973	79.60787	
1239	12.380	133.19006	1182.71667	182.29572				125.23080	1351.82922	80.06255	
1240	12.390	130.92146	1185.66870	186.93761				125.44688	1352.01306	79.94299	
1241	12.400	129.64093	1189.74036	190.99010				125.23080	1351.82922	80.06255	
1242	12.410	128.17448	1193.83691	194.40378				125.71593	1352.34973	79.60787	
1243	12.420	126.55488	1197.55664	198.83235				125.23080	1351.82922	80.06255	
1244	12.430	124.06059	1201.34302	203.01218				124.66113	1351.35791	81.36816	
1245	12.440	122.18430	1205.38342	206.83046				124.83885	1351.54614	81.10703	
1246	12.450	120.76794	1210.37915	210.63004				125.18117	1351.72314	80.20033	
1247	12.460	118.95157	1214.95789	213.98839				125.44688	1352.01306	79.94299	
1248	12.470	117.73091	1220.67932	217.48795				125.44688	1352.01306	79.94299	
1249	12.480	115.04762	1223.80139	221.47278				125.18117	1351.72314	80.20033	
1250	12.490	113.59791	1231.60242	223.29971	66.52358	1204.00403	224.18121				
1251	12.500	111.95079	1234.48206	226.22430	65.47327	1209.59814	226.45969				
1252	12.510	110.99147	1239.83850	228.53195	63.53001	1214.82422	229.03113				
1253	12.520	109.35532	1244.95239	229.53848	62.18658	1221.63257	231.00066				
1254	12.530	107.77222	1250.88977	232.24611	61.23658	1227.90271	232.26566				
1255	12.540	106.56532	1256.19946	233.55893	59.19014	1232.71216	233.40482				
1256	12.550	105.05519	1261.67810	235.61327	57.77074	1238.75818	234.96786				
1257	12.560	104.22678	1267.01074	236.73729	56.49307	1244.64258	236.17879				
1258	12.570	103.73170	1273.09985	237.85881	55.25842	1250.85217	236.97787				
1259	12.580	103.18041	1278.45081	237.98445	55.19131	1257.56812	237.20776				
1260	12.590	103.18866	1285.13257	237.44626	53.95588	1262.38416	238.06764				
1261	12.600				102.98061	1290.69275	237.75191	125.13264	1352.26880	80.96363	
1262	12.610				101.70007	1295.71204	239.55853	125.06870	1352.07788	81.21848	
1263	12.620				101.80860	1300.21545	239.60291	124.99303	1351.93286	81.20844	
1264	12.630				101.76448	1306.82312	239.14409	124.83980	1351.74890	81.42005	
1265	12.640				100.89108	1311.64148	239.73213	125.06870	1352.07788	81.21848	
1266	12.650				100.46586	1316.83655	239.19800	125.01757	1351.93738	81.15879	
1267	12.660				100.29781	1322.22632	239.10580	124.77841	1351.86853	81.41631	
1268	12.670				100.97520	1326.96448	237.33711	125.06870	1352.07788	81.21848	
1269	12.680				100.70155	1331.51111	237.29936	124.94621	1351.82141	81.20074	
1270	12.690				101.08317	1335.61743	236.80527	125.06870	1352.07788	81.21848	
1271	12.700				101.07877	1339.85559	236.39539	124.83980	1351.74890	81.42005	
1272	12.710				100.92864	1343.78284	236.80273	125.10680	1351.98535	81.36754	
1273	12.720				99.92961	1346.95764	235.58987	125.06870	1352.07788	81.21848	
1274	12.730				99.84194	1350.02649	235.68491	125.01015	1352.01233	80.94589	
1275	12.740				99.75141	1353.66602	235.66905	124.68361	1351.60803	81.56779	
1276	12.750				98.46582	1356.89758	236.08589	125.06870	1352.07788	81.21848	
1277	12.760				98.32146	1359.56982	235.54616	124.83980	1351.74890	81.42005	
1278	12.770				97.58655	1362.45972	234.45383	125.12124	1351.60608	81.54610	
1279	12.780				96.82036	1364.98596	233.81783	124.75621	1351.48120	81.51833	
1280	12.790				95.44734	1367.66760	233.22934	124.83448	1351.75195	81.19608	
1281	12.800				94.69275	1369.92773	232.78639	125.06870	1352.07788	81.21848	
1282	12.810				93.47842	1371.97937	232.63713	124.78139	1351.90955	81.08926	
1283	12.820				92.42117	1373.73047	232.14003	124.94576	1351.88757	80.94211	
1284	12.830				91.83539	1375.89868	231.41600	124.73846	1351.82593	81.17144	
1285	12.840				91.07345	1377.27771	230.91193	125.06299	1352.04492	80.80190	
1286	12.850				89.38468	1378.49805	230.55939	124.95784	1352.17725	80.88449	
1287	12.860				88.91516	1380.35876	230.47614	124.63068	1351.60742	81.34478	
1288	12.870				88.15488	1382.44714	229.18878	124.48778	1351.49353	81.15204	
1289	12.880				87.82533	1383.89575	228.09201	124.57822	1351.76880	81.20632	
1290	12.890				86.71177	1386.75110	226.63896	124.56449	1351.62830	81.20634	
1291	12.900				86.49578	1388.82849	225.46829	124.45992	1351.59485	81.40334	
1292	12.910				85.63317	1391.55688	224.15393	124.43465	1351.70386	81.17214	
1293	12.920				84.85344	1394.43237	223.18399	124.57822	1351.76880	81.20632	
1294	12.930				84.20568	1396.67395	222.10664	124.63441	1351.84619	81.01454	
1295	12.940				84.21402	1398.78333	221.11832	124.63441	1351.84619	81.01454	
1296	12.950				83.55589	1401.56775	219.44899	124.59376	1351.65869	81.28522	
1297	12.960				83.13504	1404.03455	218.90123	124.46526	1351.59839	81.39588	
1298	12.970				83.49171	1405.98645	216.62128	124.69819	1351.73413	81.31182	
1299	12.980				83.31777	1408.38586	215.26790	124.77393	1351.80054	81.15979	
1300	12.990				83.26579	1410.82861	212.82553	124.81085	1351.74939	81.21935	
1301	13.000				83.48498	1412.60388	210.52510	124.77763	1352.03516	81.00997	
1302	13.010				83.76966	1414.13940	208.23460	124.70938	1351.77393	81.30424	
1303	13.020				83.91254	1415.41736	206.09889	124.90121	1351.79773	81.25959	
1304	13.030				84.75380	1416.42517	203.91010	124.72102	1351.65588	81.38503	
1305	13.040				84.90367	1417.04004	203.38547	124.95233	1351.98584	81.18466	
1306	13.050				85.17178	1416.78918	200.86806	125.10460	1352.19360	80.80968	
1307	13.060				86.23023	1416.72778	198.78929	125.06870	1352.07788	81.21848	
1308	13.070				86.31943	1416.78271	197.30124	124.97289	1351.12036	81.50896	
1309	13.080				86.27966	1416.95325	195.57132	125.06870	1352.07788	81.21848	
1310	13.090				86.58379	1416.17407	194.30910	125.10027	1352.52979	80.57089	
1311	13.100				87.56828	1418.83057	192.18246	125.25951	1352.38416	80.74722	
1312	13.110				87.43249	1419.46143	190.23489	125.04831	1352.10864	80.97230	
1313	13.120				87.44795	1420.49377	188.03391	125.40382	1352.48560	80.44979	
1314	13.130				87.31515	1419.54614	185.87349	125.32427	1352.21155	80.87229	
1315	13.140				87.83791	1420.09863	182.77266	125.25951	1352.38416	80.74722	
1316	13.150				88.08356	1416.17004	181.28319	125.40417	1352.55322	80.55413	
1317	13.160				35.71267	1408.15198	178.89781	125.40417	1352.55322	80.55413	
1318	13.170				35.96308	1407.04956	175.28357	125.24942	1352.37708	80.37232	
1319	13.180				36.61423	1405.20752	171.76839	125.54955	1352.32446	80.51495	
1320	13.190				37.00026	1403.53369	167.17961	124.87114	1351.78809	80.64017	
1321	13.200				37.88517	1400.90210	161.75273	125.73749	1352.13574	79.38606	
1322	13.210				38.09795	1399.99976	158.19009	125.70984	1352.69238	78.83185	
1323	13.220				37.86744	1400.16614	155.58221	125.94348	1352.59583	78.77979	
1324	13.230				37.77129	1399.67188	152.87169	125.58513	1351.63208	79.72590	
1325	13.240	88.49538	1416.63318	158.13818	37.50311	1399.00439	151.24451				
1326	13.250				37.16374	1398.25256	149.40732	78.42886	1539.98450	114.96025	
1327	13.260	87.02058	1415.24121	155.53169	35.91999	1397.10693	149.14664				
1328	13.270				34.52351	1396.91162	148.16737	78.35452	1539.47241	116.62655	
1329	13.280				33.34708	1396.76501	147.37265	78.46133	1539.47327	116.70171	
1330	13.290				32.04823	1396.04370	147.25157	78.12180	1539.40503	117.32980	
1331	13.300										
1332	13.310										
1333	13.320										
1334	13.330										
